<svg xmlns="http://www.w3.org/2000/svg" width="200" height="200" viewBox="0 0 200 200"><defs><style>.a{fill:#f0f0f0;}.b{fill:#00d8ff;}.c{fill:#3a3a3a;}</style></defs><title>recat.berlin-logo</title><circle class="a" cx="100" cy="100" r="100"/><path class="b" d="M104.2,62.9a9.8,9.8,0,1,1-9.8,9.8A9.8,9.8,0,0,1,104.2,62.9Zm35.6-7.5-3.4-1.1.5-2.3c2.8-13.3.8-23.8-5.1-27.2s-15-.1-24.8,8.4l-2.7,2.4-1.7-1.6c-10.2-9-20.2-12.5-26.1-9.1S68.8,38,71.3,50.8c.2,1.2.5,2.3.8,3.5l-4,1.3c-12,4.2-19.2,10.6-19.2,17.2s7.8,13.7,20.3,18l2.9.9q-.5,1.9-.8,3.8c-2.4,12.5-.4,22,5.3,25.3a10.6,10.6,0,0,0,5.4,1.3c5.7,0,13-3.5,20.3-9.9l2.2-2,2.9,2.6c7.1,6.1,13.9,9.3,19.3,9.3a10.3,10.3,0,0,0,5.3-1.3c5.9-3.4,8-13.6,5.4-26.6-.2-.9-.4-1.9-.6-2.8l1.9-.6c12.9-4.3,21-11.2,21-18S152.2,59.7,139.8,55.5ZM129.3,29.2c3.1,1.8,5.3,9.4,2.7,21.8l-.5,2.1A113.1,113.1,0,0,0,117,50.8a111.8,111.8,0,0,0-9.2-11.5l2.4-2.2C119.2,29.3,126.4,27.6,129.3,29.2Zm-9.8,52.4q-2.6,4.5-5.2,8.5c-3.3.2-6.6.4-10,.4s-6.7-.1-9.9-.3c-1.9-2.7-3.7-5.6-5.4-8.5s-3.2-5.9-4.7-8.8c1.4-3,3-5.9,4.7-8.8s3.5-5.7,5.3-8.4c3.3-.2,6.6-.4,10-.4s6.7.1,10,.4c1.8,2.7,3.6,5.5,5.3,8.4s3.3,5.9,4.7,8.8C122.8,75.7,121.2,78.7,119.5,81.7Zm7.4-3.1a98.3,98.3,0,0,1,3.5,9.3c-3.1.7-6.4,1.3-9.8,1.7l3.2-5.4Zm-22.5,24.4c-2.1-2.3-4.3-4.8-6.3-7.6h12.5Q107.5,99.5,104.4,102.9ZM88,89.6c-3.4-.4-6.7-.9-9.7-1.6.9-3,2.1-6.1,3.4-9.3q1.4,2.7,3,5.4ZM81.7,67c-1.3-3.1-2.4-6.1-3.3-9.1,3-.7,6.2-1.2,9.5-1.6l-3.2,5.3Zm22.6-24.1c2.1,2.3,4.1,4.8,6.2,7.5H98C100.1,47.7,102.2,45.2,104.3,42.9Zm19.5,18.6-3.2-5.3c3.3.4,6.6,1,9.6,1.7-.9,2.9-2,5.9-3.4,9.1ZM76.3,49.8c-2.3-11.6-.2-18.8,2.7-20.4a5.5,5.5,0,0,1,2.8-.6c3.9,0,10.2,2.6,17.5,9.2l1.5,1.4a113.2,113.2,0,0,0-9.3,11.5A114.2,114.2,0,0,0,77,53.1C76.7,52,76.5,50.9,76.3,49.8ZM70.8,86c-11.6-4-16.9-9.6-16.9-13.3s4.9-8.7,15.9-12.5l3.7-1.2a113.2,113.2,0,0,0,5.3,13.7,113.9,113.9,0,0,0-5.4,14ZM79,116.4c-3-1.7-5.1-8.6-2.9-20,.2-1.1.5-2.3.8-3.5A110.3,110.3,0,0,0,91.6,95a113.8,113.8,0,0,0,9.3,11.5l-2,1.8C89.7,116.4,82.1,118.2,79,116.4Zm53.3-21.2c2.4,12,.1,19.4-3,21.3s-10,.1-18.8-7.5l-2.7-2.4a110.2,110.2,0,0,0,9.1-11.6,110.9,110.9,0,0,0,14.7-2.3ZM137,86l-1.7.5a110,110,0,0,0-5.5-13.8A111.5,111.5,0,0,0,135,59.2l3.1,1c11.2,3.9,16.3,9.2,16.3,12.6S149,82,137,86Z"/><polygon class="c" points="172 86 33 86 33 87 33 87 33 152 46 152 46 99 58 99 58 152 71 152 71 99 83 99 83 152 96 152 96 99 109 99 109 152 122 152 122 99 134 99 134 152 147 152 147 99 159 99 159 152 172 152 172 99 172 99 172 86"/></svg>